<svg width="222" height="260" viewBox="0 0 222 260" fill="none" xmlns="http://www.w3.org/2000/svg">
<g id="Overlay/menu/1">
<g id="Group 6">
<rect id="Rectangle 10" width="222" height="260" rx="36" fill="#FFFFF5"/>
<line id="Line 2" x1="12" y1="95.5" x2="209" y2="95.5" stroke="#FFA6AB"/>
<line id="Line 4" x1="12" y1="151.5" x2="209" y2="151.5" stroke="#FFA6AB"/>
<line id="Line 3" x1="12" y1="206.5" x2="209" y2="206.5" stroke="#FFA6AB"/>
<path id="I miei dati" d="M74.4852 241V228.93H75.6752V241H74.4852ZM95.972 241H94.816V236.053C94.816 235.022 94.6516 234.262 94.323 233.775C93.9943 233.288 93.507 233.044 92.861 233.044C92.521 233.044 92.198 233.106 91.892 233.231C91.5973 233.356 91.3196 233.531 91.059 233.758C90.8096 233.985 90.5886 234.257 90.396 234.574C90.2033 234.88 90.056 235.22 89.954 235.594V241H88.798V236.053C88.798 234.999 88.6393 234.234 88.322 233.758C88.0046 233.282 87.5173 233.044 86.86 233.044C86.1913 233.044 85.5963 233.276 85.075 233.741C84.5536 234.206 84.1796 234.818 83.953 235.577V241H82.797V232.143H83.851V234.149C84.2136 233.469 84.6896 232.942 85.279 232.568C85.8683 232.183 86.52 231.99 87.234 231.99C87.982 231.99 88.577 232.2 89.019 232.619C89.4723 233.038 89.75 233.588 89.852 234.268C90.6793 232.749 91.8183 231.99 93.269 231.99C93.7676 231.99 94.187 232.081 94.527 232.262C94.8783 232.443 95.156 232.704 95.36 233.044C95.5753 233.373 95.7283 233.775 95.819 234.251C95.921 234.716 95.972 235.237 95.972 235.815V241ZM98.419 241V232.143H99.575V241H98.419ZM98.419 230.29V228.59H99.575V230.29H98.419ZM105.946 241.17C105.3 241.17 104.705 241.051 104.161 240.813C103.629 240.564 103.164 240.229 102.767 239.81C102.371 239.379 102.059 238.886 101.832 238.331C101.617 237.776 101.509 237.181 101.509 236.546C101.509 235.923 101.617 235.339 101.832 234.795C102.059 234.24 102.365 233.758 102.75 233.35C103.147 232.931 103.617 232.602 104.161 232.364C104.705 232.115 105.295 231.99 105.929 231.99C106.575 231.99 107.165 232.115 107.697 232.364C108.241 232.602 108.706 232.931 109.091 233.35C109.477 233.769 109.777 234.251 109.992 234.795C110.208 235.339 110.315 235.917 110.315 236.529C110.315 236.62 110.315 236.71 110.315 236.801C110.315 236.892 110.31 236.954 110.298 236.988H102.716C102.75 237.464 102.858 237.906 103.039 238.314C103.232 238.711 103.476 239.056 103.77 239.351C104.065 239.646 104.399 239.878 104.773 240.048C105.159 240.207 105.567 240.286 105.997 240.286C106.281 240.286 106.564 240.246 106.847 240.167C107.131 240.088 107.391 239.98 107.629 239.844C107.867 239.708 108.083 239.544 108.275 239.351C108.468 239.147 108.615 238.926 108.717 238.688L109.72 238.96C109.584 239.289 109.392 239.589 109.142 239.861C108.893 240.122 108.604 240.354 108.275 240.558C107.947 240.751 107.584 240.898 107.187 241C106.791 241.113 106.377 241.17 105.946 241.17ZM109.21 236.104C109.176 235.628 109.063 235.197 108.87 234.812C108.689 234.415 108.451 234.075 108.156 233.792C107.873 233.509 107.539 233.288 107.153 233.129C106.779 232.97 106.377 232.891 105.946 232.891C105.516 232.891 105.108 232.97 104.722 233.129C104.337 233.288 103.997 233.509 103.702 233.792C103.419 234.075 103.187 234.415 103.005 234.812C102.835 235.209 102.733 235.639 102.699 236.104H109.21ZM112.099 241V232.143H113.255V241H112.099ZM112.099 230.29V228.59H113.255V230.29H112.099ZM123.772 241.17C123.16 241.17 122.593 241.045 122.072 240.796C121.551 240.535 121.103 240.195 120.729 239.776C120.355 239.357 120.06 238.875 119.845 238.331C119.641 237.776 119.539 237.198 119.539 236.597C119.539 235.974 119.641 235.384 119.845 234.829C120.049 234.262 120.327 233.769 120.678 233.35C121.041 232.931 121.466 232.602 121.953 232.364C122.452 232.115 122.996 231.99 123.585 231.99C124.333 231.99 124.996 232.188 125.574 232.585C126.152 232.97 126.605 233.441 126.934 233.996V228.59H128.09V239.504C128.09 239.821 128.226 239.98 128.498 239.98V241C128.328 241.034 128.192 241.051 128.09 241.051C127.818 241.051 127.58 240.966 127.376 240.796C127.172 240.615 127.07 240.399 127.07 240.15V239.283C126.719 239.861 126.243 240.32 125.642 240.66C125.041 241 124.418 241.17 123.772 241.17ZM124.027 240.15C124.31 240.15 124.611 240.093 124.928 239.98C125.257 239.867 125.563 239.714 125.846 239.521C126.129 239.317 126.367 239.085 126.56 238.824C126.764 238.552 126.889 238.263 126.934 237.957V235.22C126.821 234.914 126.656 234.631 126.441 234.37C126.226 234.098 125.976 233.86 125.693 233.656C125.421 233.452 125.126 233.293 124.809 233.18C124.492 233.067 124.18 233.01 123.874 233.01C123.398 233.01 122.967 233.112 122.582 233.316C122.197 233.52 121.862 233.792 121.579 234.132C121.307 234.461 121.097 234.84 120.95 235.271C120.803 235.702 120.729 236.144 120.729 236.597C120.729 237.073 120.814 237.526 120.984 237.957C121.154 238.388 121.386 238.767 121.681 239.096C121.976 239.413 122.321 239.668 122.718 239.861C123.126 240.054 123.562 240.15 124.027 240.15ZM132.936 241.17C132.517 241.17 132.126 241.102 131.763 240.966C131.412 240.819 131.1 240.62 130.828 240.371C130.567 240.122 130.363 239.833 130.216 239.504C130.069 239.164 129.995 238.801 129.995 238.416C129.995 238.031 130.086 237.674 130.267 237.345C130.448 237.016 130.703 236.733 131.032 236.495C131.361 236.257 131.752 236.076 132.205 235.951C132.658 235.815 133.157 235.747 133.701 235.747C134.154 235.747 134.613 235.787 135.078 235.866C135.543 235.945 135.956 236.059 136.319 236.206V235.407C136.319 234.625 136.098 234.007 135.656 233.554C135.214 233.089 134.602 232.857 133.82 232.857C133.367 232.857 132.902 232.948 132.426 233.129C131.95 233.31 131.468 233.571 130.981 233.911L130.573 233.146C131.718 232.375 132.828 231.99 133.905 231.99C135.016 231.99 135.888 232.302 136.523 232.925C137.158 233.548 137.475 234.41 137.475 235.509V239.504C137.475 239.821 137.617 239.98 137.9 239.98V241C137.707 241.034 137.56 241.051 137.458 241.051C137.163 241.051 136.931 240.977 136.761 240.83C136.602 240.683 136.517 240.479 136.506 240.218L136.472 239.521C136.064 240.054 135.548 240.462 134.925 240.745C134.313 241.028 133.65 241.17 132.936 241.17ZM133.208 240.286C133.809 240.286 134.358 240.173 134.857 239.946C135.367 239.719 135.752 239.419 136.013 239.045C136.115 238.943 136.189 238.835 136.234 238.722C136.291 238.597 136.319 238.484 136.319 238.382V236.937C135.934 236.79 135.531 236.676 135.112 236.597C134.704 236.518 134.285 236.478 133.854 236.478C133.038 236.478 132.375 236.648 131.865 236.988C131.355 237.328 131.1 237.776 131.1 238.331C131.1 238.603 131.151 238.858 131.253 239.096C131.366 239.334 131.514 239.544 131.695 239.725C131.888 239.895 132.114 240.031 132.375 240.133C132.636 240.235 132.913 240.286 133.208 240.286ZM144.156 240.575C144.088 240.609 143.986 240.654 143.85 240.711C143.726 240.768 143.578 240.824 143.408 240.881C143.238 240.938 143.046 240.989 142.83 241.034C142.615 241.079 142.388 241.102 142.15 241.102C141.901 241.102 141.663 241.068 141.436 241C141.21 240.932 141.011 240.83 140.841 240.694C140.671 240.547 140.535 240.365 140.433 240.15C140.331 239.935 140.28 239.685 140.28 239.402V233.061H139.056V232.143H140.28V229.151H141.436V232.143H143.476V233.061H141.436V239.079C141.459 239.408 141.572 239.651 141.776 239.81C141.992 239.957 142.235 240.031 142.507 240.031C142.836 240.031 143.125 239.98 143.374 239.878C143.624 239.765 143.782 239.685 143.85 239.64L144.156 240.575ZM145.601 241V232.143H146.757V241H145.601ZM145.601 230.29V228.59H146.757V230.29H145.601Z" fill="#9A9A9A"/>
<path id="I miei PrefeMici" d="M52.7288 130V117.93H53.9188V130H52.7288ZM74.2156 130H73.0596V125.053C73.0596 124.022 72.8953 123.262 72.5666 122.775C72.238 122.288 71.7506 122.044 71.1046 122.044C70.7646 122.044 70.4416 122.106 70.1356 122.231C69.841 122.356 69.5633 122.531 69.3026 122.758C69.0533 122.985 68.8323 123.257 68.6396 123.574C68.447 123.88 68.2996 124.22 68.1976 124.594V130H67.0416V125.053C67.0416 123.999 66.883 123.234 66.5656 122.758C66.2483 122.282 65.761 122.044 65.1036 122.044C64.435 122.044 63.84 122.276 63.3186 122.741C62.7973 123.206 62.4233 123.818 62.1966 124.577V130H61.0406V121.143H62.0946V123.149C62.4573 122.469 62.9333 121.942 63.5226 121.568C64.112 121.183 64.7636 120.99 65.4776 120.99C66.2256 120.99 66.8206 121.2 67.2626 121.619C67.716 122.038 67.9936 122.588 68.0956 123.268C68.923 121.749 70.062 120.99 71.5126 120.99C72.0113 120.99 72.4306 121.081 72.7706 121.262C73.122 121.443 73.3996 121.704 73.6036 122.044C73.819 122.373 73.972 122.775 74.0626 123.251C74.1646 123.716 74.2156 124.237 74.2156 124.815V130ZM76.6627 130V121.143H77.8187V130H76.6627ZM76.6627 119.29V117.59H77.8187V119.29H76.6627ZM84.1898 130.17C83.5438 130.17 82.9488 130.051 82.4048 129.813C81.8722 129.564 81.4075 129.229 81.0108 128.81C80.6142 128.379 80.3025 127.886 80.0758 127.331C79.8605 126.776 79.7528 126.181 79.7528 125.546C79.7528 124.923 79.8605 124.339 80.0758 123.795C80.3025 123.24 80.6085 122.758 80.9938 122.35C81.3905 121.931 81.8608 121.602 82.4048 121.364C82.9488 121.115 83.5382 120.99 84.1728 120.99C84.8188 120.99 85.4082 121.115 85.9408 121.364C86.4848 121.602 86.9495 121.931 87.3348 122.35C87.7202 122.769 88.0205 123.251 88.2358 123.795C88.4512 124.339 88.5588 124.917 88.5588 125.529C88.5588 125.62 88.5588 125.71 88.5588 125.801C88.5588 125.892 88.5532 125.954 88.5418 125.988H80.9598C80.9938 126.464 81.1015 126.906 81.2828 127.314C81.4755 127.711 81.7192 128.056 82.0138 128.351C82.3085 128.646 82.6428 128.878 83.0168 129.048C83.4022 129.207 83.8102 129.286 84.2408 129.286C84.5242 129.286 84.8075 129.246 85.0908 129.167C85.3742 129.088 85.6348 128.98 85.8728 128.844C86.1108 128.708 86.3262 128.544 86.5188 128.351C86.7115 128.147 86.8588 127.926 86.9608 127.688L87.9638 127.96C87.8278 128.289 87.6352 128.589 87.3858 128.861C87.1365 129.122 86.8475 129.354 86.5188 129.558C86.1902 129.751 85.8275 129.898 85.4308 130C85.0342 130.113 84.6205 130.17 84.1898 130.17ZM87.4538 125.104C87.4198 124.628 87.3065 124.197 87.1138 123.812C86.9325 123.415 86.6945 123.075 86.3998 122.792C86.1165 122.509 85.7822 122.288 85.3968 122.129C85.0228 121.97 84.6205 121.891 84.1898 121.891C83.7592 121.891 83.3512 121.97 82.9658 122.129C82.5805 122.288 82.2405 122.509 81.9458 122.792C81.6625 123.075 81.4302 123.415 81.2488 123.812C81.0788 124.209 80.9768 124.639 80.9428 125.104H87.4538ZM90.3424 130V121.143H91.4984V130H90.3424ZM90.3424 119.29V117.59H91.4984V119.29H90.3424ZM98.6155 130V117.93H103.614C104.135 117.93 104.611 118.043 105.042 118.27C105.484 118.485 105.863 118.774 106.181 119.137C106.498 119.488 106.747 119.891 106.929 120.344C107.11 120.797 107.201 121.256 107.201 121.721C107.201 122.22 107.116 122.701 106.946 123.166C106.776 123.619 106.538 124.022 106.232 124.373C105.926 124.724 105.557 125.008 105.127 125.223C104.707 125.438 104.237 125.546 103.716 125.546H99.8055V130H98.6155ZM99.8055 124.492H103.665C104.016 124.492 104.333 124.418 104.617 124.271C104.911 124.112 105.161 123.908 105.365 123.659C105.569 123.398 105.727 123.104 105.841 122.775C105.954 122.435 106.011 122.084 106.011 121.721C106.011 121.347 105.943 120.996 105.807 120.667C105.682 120.327 105.506 120.032 105.28 119.783C105.064 119.534 104.804 119.341 104.498 119.205C104.203 119.058 103.891 118.984 103.563 118.984H99.8055V124.492ZM113.373 122.163C112.591 122.186 111.911 122.401 111.333 122.809C110.755 123.217 110.347 123.778 110.109 124.492V130H108.953V121.143H110.041V123.268C110.369 122.588 110.811 122.055 111.367 121.67C111.922 121.285 112.517 121.092 113.152 121.092C113.242 121.092 113.316 121.098 113.373 121.109V122.163ZM118.289 130.17C117.643 130.17 117.048 130.051 116.504 129.813C115.972 129.564 115.507 129.229 115.11 128.81C114.714 128.379 114.402 127.886 114.175 127.331C113.96 126.776 113.852 126.181 113.852 125.546C113.852 124.923 113.96 124.339 114.175 123.795C114.402 123.24 114.708 122.758 115.093 122.35C115.49 121.931 115.96 121.602 116.504 121.364C117.048 121.115 117.638 120.99 118.272 120.99C118.918 120.99 119.508 121.115 120.04 121.364C120.584 121.602 121.049 121.931 121.434 122.35C121.82 122.769 122.12 123.251 122.335 123.795C122.551 124.339 122.658 124.917 122.658 125.529C122.658 125.62 122.658 125.71 122.658 125.801C122.658 125.892 122.653 125.954 122.641 125.988H115.059C115.093 126.464 115.201 126.906 115.382 127.314C115.575 127.711 115.819 128.056 116.113 128.351C116.408 128.646 116.742 128.878 117.116 129.048C117.502 129.207 117.91 129.286 118.34 129.286C118.624 129.286 118.907 129.246 119.19 129.167C119.474 129.088 119.734 128.98 119.972 128.844C120.21 128.708 120.426 128.544 120.618 128.351C120.811 128.147 120.958 127.926 121.06 127.688L122.063 127.96C121.927 128.289 121.735 128.589 121.485 128.861C121.236 129.122 120.947 129.354 120.618 129.558C120.29 129.751 119.927 129.898 119.53 130C119.134 130.113 118.72 130.17 118.289 130.17ZM121.553 125.104C121.519 124.628 121.406 124.197 121.213 123.812C121.032 123.415 120.794 123.075 120.499 122.792C120.216 122.509 119.882 122.288 119.496 122.129C119.122 121.97 118.72 121.891 118.289 121.891C117.859 121.891 117.451 121.97 117.065 122.129C116.68 122.288 116.34 122.509 116.045 122.792C115.762 123.075 115.53 123.415 115.348 123.812C115.178 124.209 115.076 124.639 115.042 125.104H121.553ZM124.784 130V122.061H123.56V121.143H124.784V120.905C124.784 119.817 125.016 118.967 125.481 118.355C125.946 117.732 126.58 117.42 127.385 117.42C127.736 117.42 128.076 117.471 128.405 117.573C128.734 117.675 129.017 117.811 129.255 117.981L128.898 118.814C128.739 118.689 128.541 118.593 128.303 118.525C128.076 118.457 127.844 118.423 127.606 118.423C127.062 118.423 126.648 118.633 126.365 119.052C126.082 119.471 125.94 120.078 125.94 120.871V121.143H128.388V122.061H125.94V130H124.784ZM133.347 130.17C132.701 130.17 132.106 130.051 131.562 129.813C131.029 129.564 130.565 129.229 130.168 128.81C129.771 128.379 129.46 127.886 129.233 127.331C129.018 126.776 128.91 126.181 128.91 125.546C128.91 124.923 129.018 124.339 129.233 123.795C129.46 123.24 129.766 122.758 130.151 122.35C130.548 121.931 131.018 121.602 131.562 121.364C132.106 121.115 132.695 120.99 133.33 120.99C133.976 120.99 134.565 121.115 135.098 121.364C135.642 121.602 136.107 121.931 136.492 122.35C136.877 122.769 137.178 123.251 137.393 123.795C137.608 124.339 137.716 124.917 137.716 125.529C137.716 125.62 137.716 125.71 137.716 125.801C137.716 125.892 137.71 125.954 137.699 125.988H130.117C130.151 126.464 130.259 126.906 130.44 127.314C130.633 127.711 130.876 128.056 131.171 128.351C131.466 128.646 131.8 128.878 132.174 129.048C132.559 129.207 132.967 129.286 133.398 129.286C133.681 129.286 133.965 129.246 134.248 129.167C134.531 129.088 134.792 128.98 135.03 128.844C135.268 128.708 135.483 128.544 135.676 128.351C135.869 128.147 136.016 127.926 136.118 127.688L137.121 127.96C136.985 128.289 136.792 128.589 136.543 128.861C136.294 129.122 136.005 129.354 135.676 129.558C135.347 129.751 134.985 129.898 134.588 130C134.191 130.113 133.778 130.17 133.347 130.17ZM136.611 125.104C136.577 124.628 136.464 124.197 136.271 123.812C136.09 123.415 135.852 123.075 135.557 122.792C135.274 122.509 134.939 122.288 134.554 122.129C134.18 121.97 133.778 121.891 133.347 121.891C132.916 121.891 132.508 121.97 132.123 122.129C131.738 122.288 131.398 122.509 131.103 122.792C130.82 123.075 130.587 123.415 130.406 123.812C130.236 124.209 130.134 124.639 130.1 125.104H136.611ZM150.348 130V120.089L145.945 127.756H145.248L140.845 120.089V130H139.655V117.93H140.879L145.588 126.192L150.331 117.93H151.538V130H150.348ZM154.325 130V121.143H155.481V130H154.325ZM154.325 119.29V117.59H155.481V119.29H154.325ZM157.415 125.546C157.415 124.923 157.523 124.333 157.738 123.778C157.953 123.223 158.254 122.741 158.639 122.333C159.036 121.914 159.506 121.585 160.05 121.347C160.594 121.109 161.195 120.99 161.852 120.99C162.691 120.99 163.422 121.183 164.045 121.568C164.668 121.942 165.139 122.452 165.456 123.098L164.334 123.455C164.085 123.002 163.733 122.65 163.28 122.401C162.838 122.14 162.345 122.01 161.801 122.01C161.348 122.01 160.923 122.101 160.526 122.282C160.141 122.463 159.801 122.713 159.506 123.03C159.223 123.336 158.996 123.704 158.826 124.135C158.667 124.566 158.588 125.036 158.588 125.546C158.588 126.045 158.673 126.515 158.843 126.957C159.013 127.399 159.245 127.784 159.54 128.113C159.835 128.43 160.175 128.685 160.56 128.878C160.957 129.059 161.376 129.15 161.818 129.15C162.101 129.15 162.379 129.11 162.651 129.031C162.934 128.952 163.195 128.844 163.433 128.708C163.671 128.561 163.875 128.396 164.045 128.215C164.215 128.034 164.334 127.841 164.402 127.637L165.541 127.977C165.416 128.294 165.235 128.589 164.997 128.861C164.759 129.122 164.476 129.354 164.147 129.558C163.83 129.751 163.473 129.898 163.076 130C162.691 130.113 162.288 130.17 161.869 130.17C161.223 130.17 160.628 130.051 160.084 129.813C159.54 129.564 159.07 129.229 158.673 128.81C158.276 128.379 157.965 127.886 157.738 127.331C157.523 126.776 157.415 126.181 157.415 125.546ZM167.357 130V121.143H168.513V130H167.357ZM167.357 119.29V117.59H168.513V119.29H167.357Z" fill="#9A9A9A"/>
<g id="Group 30">
<g id="logo">
<g id="Group 2">
<path id="Polygon 1" d="M111.037 60.6846L101.9 56.3594L96.1219 51.5471L90.4781 40.6627L93.5687 19.2388L95.5844 16.4169L104.856 30.1815L116.816 30.1815L125.55 16.6255L127.566 19.4473L130.119 33.5408L130.522 40.6627L124.878 52.0846L120.847 55.3096L111.037 60.6846Z" fill="#FFA6AB"/>
<path id="Ellipse 1" d="M94.3146 18.2664C91.6159 21.7386 89.856 26.0064 89.2423 30.5668C88.6285 35.1271 89.1866 39.7898 90.8507 44.0051C92.5149 48.2204 95.2156 51.8126 98.6346 54.358C102.054 56.9035 106.048 58.2961 110.147 58.3717C114.247 58.4474 118.28 57.2029 121.771 54.7849C125.262 52.367 128.066 48.8764 129.853 44.7248C131.639 40.5731 132.332 35.9335 131.852 31.353C131.371 26.7724 129.737 22.4419 127.141 18.872L124.415 21.3809C126.586 24.366 127.952 27.9871 128.354 31.8173C128.756 35.6475 128.176 39.5271 126.682 42.9986C125.189 46.4701 122.844 49.3889 119.925 51.4107C117.005 53.4326 113.633 54.4733 110.205 54.41C106.777 54.3468 103.437 53.1823 100.578 51.0538C97.7194 48.9253 95.4611 45.9216 94.0696 42.3969C92.6781 38.8721 92.2114 34.9732 92.7246 31.1599C93.2378 27.3466 94.7094 23.7779 96.966 20.8745L94.3146 18.2664Z" fill="#FFA6AB"/>
<ellipse id="Ellipse 2" cx="110.5" cy="41.0406" rx="16.125" ry="15.9906" fill="#FFA6AB"/>
</g>
<g id="Group 1">
<ellipse id="Ellipse 6" cx="109.064" cy="46.5299" rx="1.82693" ry="2.65735" transform="rotate(-28.143 109.064 46.5299)" fill="#FFFFF5"/>
<ellipse id="Ellipse 7" cx="111.722" cy="46.5925" rx="1.82693" ry="2.65735" transform="rotate(28.14 111.722 46.5925)" fill="#FFFFF5"/>
<path id="Polygon 4" d="M110.419 50.3632L108.21 48.3701H112.627L110.419 50.3632Z" fill="#FFFFF5"/>
</g>
</g>
<path id="HOME" d="M95.6892 68.93V81H93.3602V75.849H87.8862V81H85.5402V68.93H87.8862V73.809H93.3602V68.93H95.6892ZM103.358 81.085C102.474 81.085 101.67 80.915 100.944 80.575C100.23 80.2237 99.6126 79.7647 99.0912 79.198C98.5812 78.62 98.1846 77.9627 97.9012 77.226C97.6179 76.4893 97.4762 75.7357 97.4762 74.965C97.4762 74.1603 97.6236 73.3897 97.9182 72.653C98.2242 71.9163 98.6379 71.2647 99.1592 70.698C99.6919 70.1313 100.321 69.6837 101.046 69.355C101.772 69.015 102.559 68.845 103.409 68.845C104.282 68.845 105.075 69.0263 105.789 69.389C106.515 69.7403 107.132 70.205 107.642 70.783C108.152 71.361 108.549 72.0183 108.832 72.755C109.116 73.4917 109.257 74.2397 109.257 74.999C109.257 75.8037 109.11 76.5743 108.815 77.311C108.521 78.0363 108.113 78.6823 107.591 79.249C107.07 79.8043 106.447 80.252 105.721 80.592C104.996 80.9207 104.208 81.085 103.358 81.085ZM99.8562 74.965C99.8562 75.4863 99.9356 75.9907 100.094 76.478C100.253 76.9653 100.48 77.396 100.774 77.77C101.08 78.144 101.449 78.4443 101.879 78.671C102.321 78.8977 102.82 79.011 103.375 79.011C103.942 79.011 104.441 78.8977 104.871 78.671C105.313 78.433 105.682 78.1213 105.976 77.736C106.282 77.3507 106.509 76.92 106.656 76.444C106.815 75.9567 106.894 75.4637 106.894 74.965C106.894 74.4437 106.809 73.9393 106.639 73.452C106.481 72.9647 106.248 72.534 105.942 72.16C105.648 71.786 105.279 71.4913 104.837 71.276C104.407 71.0493 103.919 70.936 103.375 70.936C102.809 70.936 102.304 71.055 101.862 71.293C101.42 71.5197 101.052 71.8257 100.757 72.211C100.463 72.585 100.236 73.0157 100.077 73.503C99.9299 73.979 99.8562 74.4663 99.8562 74.965ZM120.9 81V73.01L117.789 78.96H116.514L113.403 73.01V81H111.057V68.93H113.573L117.143 75.798L120.747 68.93H123.246V81H120.9ZM134.147 78.943V81H125.766V68.93H133.994V70.987H128.112V73.894H133.195V75.798H128.112V78.943H134.147Z" fill="#FFA6AB"/>
</g>
<path id="I nostri Micetti" d="M57.3109 186V173.93H58.5009V186H57.3109ZM73.0687 186H71.9127V181.053C71.9127 179.999 71.754 179.234 71.4367 178.758C71.1307 178.282 70.6547 178.044 70.0087 178.044C69.6687 178.044 69.3287 178.106 68.9887 178.231C68.6487 178.356 68.3313 178.531 68.0367 178.758C67.7533 178.985 67.4983 179.257 67.2717 179.574C67.045 179.88 66.8807 180.214 66.7787 180.577V186H65.6227V177.143H66.6767V179.149C67.0393 178.503 67.555 177.982 68.2237 177.585C68.9037 177.188 69.6403 176.99 70.4337 176.99C70.921 176.99 71.3347 177.081 71.6747 177.262C72.0147 177.443 72.2867 177.698 72.4907 178.027C72.6947 178.356 72.842 178.758 72.9327 179.234C73.0233 179.71 73.0687 180.237 73.0687 180.815V186ZM79.3078 186.17C78.6618 186.17 78.0725 186.051 77.5398 185.813C77.0071 185.564 76.5425 185.229 76.1458 184.81C75.7605 184.391 75.4601 183.903 75.2448 183.348C75.0295 182.793 74.9218 182.209 74.9218 181.597C74.9218 180.974 75.0295 180.384 75.2448 179.829C75.4715 179.274 75.7775 178.786 76.1628 178.367C76.5595 177.948 77.0241 177.613 77.5568 177.364C78.0895 177.115 78.6731 176.99 79.3078 176.99C79.9425 176.99 80.5261 177.115 81.0588 177.364C81.6028 177.613 82.0675 177.948 82.4528 178.367C82.8495 178.786 83.1555 179.274 83.3708 179.829C83.5975 180.384 83.7108 180.974 83.7108 181.597C83.7108 182.209 83.6031 182.793 83.3878 183.348C83.1725 183.903 82.8665 184.391 82.4698 184.81C82.0845 185.229 81.6198 185.564 81.0758 185.813C80.5431 186.051 79.9538 186.17 79.3078 186.17ZM76.0948 181.614C76.0948 182.113 76.1798 182.577 76.3498 183.008C76.5198 183.427 76.7465 183.801 77.0298 184.13C77.3245 184.447 77.6645 184.697 78.0498 184.878C78.4465 185.059 78.8658 185.15 79.3078 185.15C79.7498 185.15 80.1635 185.059 80.5488 184.878C80.9455 184.685 81.2911 184.43 81.5858 184.113C81.8805 183.784 82.1128 183.405 82.2828 182.974C82.4528 182.543 82.5378 182.079 82.5378 181.58C82.5378 181.093 82.4528 180.634 82.2828 180.203C82.1128 179.761 81.8805 179.381 81.5858 179.064C81.2911 178.735 80.9455 178.48 80.5488 178.299C80.1635 178.106 79.7498 178.01 79.3078 178.01C78.8658 178.01 78.4521 178.106 78.0668 178.299C77.6815 178.48 77.3415 178.735 77.0468 179.064C76.7521 179.393 76.5198 179.778 76.3498 180.22C76.1798 180.651 76.0948 181.115 76.0948 181.614ZM88.5851 186.17C87.8938 186.17 87.2195 186.057 86.5621 185.83C85.9048 185.603 85.3381 185.275 84.8621 184.844L85.3891 184.062C85.8878 184.47 86.3921 184.776 86.9021 184.98C87.4235 185.184 87.9788 185.286 88.5681 185.286C89.2821 185.286 89.8488 185.144 90.2681 184.861C90.6988 184.566 90.9141 184.153 90.9141 183.62C90.9141 183.371 90.8575 183.167 90.7441 183.008C90.6308 182.838 90.4608 182.691 90.2341 182.566C90.0188 182.441 89.7411 182.334 89.4011 182.243C89.0725 182.141 88.6871 182.039 88.2451 181.937C87.7351 181.812 87.2931 181.688 86.9191 181.563C86.5451 181.438 86.2335 181.297 85.9841 181.138C85.7461 180.979 85.5648 180.787 85.4401 180.56C85.3268 180.322 85.2701 180.027 85.2701 179.676C85.2701 179.234 85.3551 178.843 85.5251 178.503C85.7065 178.163 85.9445 177.885 86.2391 177.67C86.5451 177.443 86.8965 177.273 87.2931 177.16C87.7011 177.047 88.1318 176.99 88.5851 176.99C89.2651 176.99 89.8828 177.103 90.4381 177.33C90.9935 177.545 91.4411 177.834 91.7811 178.197L91.2201 178.877C90.8915 178.537 90.4891 178.282 90.0131 178.112C89.5485 177.942 89.0611 177.857 88.5511 177.857C88.2451 177.857 87.9618 177.891 87.7011 177.959C87.4405 178.016 87.2081 178.112 87.0041 178.248C86.8115 178.384 86.6585 178.56 86.5451 178.775C86.4318 178.979 86.3751 179.223 86.3751 179.506C86.3751 179.744 86.4148 179.937 86.4941 180.084C86.5735 180.231 86.7038 180.362 86.8851 180.475C87.0665 180.577 87.2931 180.673 87.5651 180.764C87.8485 180.843 88.1885 180.928 88.5851 181.019C89.1518 181.155 89.6505 181.291 90.0811 181.427C90.5118 181.563 90.8688 181.722 91.1521 181.903C91.4468 182.084 91.6678 182.305 91.8151 182.566C91.9625 182.827 92.0361 183.144 92.0361 183.518C92.0361 184.334 91.7245 184.98 91.1011 185.456C90.4778 185.932 89.6391 186.17 88.5851 186.17ZM98.1783 185.575C98.1103 185.609 98.0083 185.654 97.8723 185.711C97.7477 185.768 97.6003 185.824 97.4303 185.881C97.2603 185.938 97.0677 185.989 96.8523 186.034C96.637 186.079 96.4103 186.102 96.1723 186.102C95.923 186.102 95.685 186.068 95.4583 186C95.2317 185.932 95.0333 185.83 94.8633 185.694C94.6933 185.547 94.5573 185.365 94.4553 185.15C94.3533 184.935 94.3023 184.685 94.3023 184.402V178.061H93.0783V177.143H94.3023V174.151H95.4583V177.143H97.4983V178.061H95.4583V184.079C95.481 184.408 95.5943 184.651 95.7983 184.81C96.0137 184.957 96.2573 185.031 96.5293 185.031C96.858 185.031 97.147 184.98 97.3963 184.878C97.6457 184.765 97.8043 184.685 97.8723 184.64L98.1783 185.575ZM104.043 178.163C103.261 178.186 102.581 178.401 102.003 178.809C101.425 179.217 101.017 179.778 100.779 180.492V186H99.6227V177.143H100.711V179.268C101.039 178.588 101.481 178.055 102.037 177.67C102.592 177.285 103.187 177.092 103.822 177.092C103.912 177.092 103.986 177.098 104.043 177.109V178.163ZM105.583 186V177.143H106.739V186H105.583ZM105.583 175.29V173.59H106.739V175.29H105.583ZM124.549 186V176.089L120.146 183.756H119.449L115.046 176.089V186H113.856V173.93H115.08L119.789 182.192L124.532 173.93H125.739V186H124.549ZM128.526 186V177.143H129.682V186H128.526ZM128.526 175.29V173.59H129.682V175.29H128.526ZM131.616 181.546C131.616 180.923 131.724 180.333 131.939 179.778C132.154 179.223 132.455 178.741 132.84 178.333C133.237 177.914 133.707 177.585 134.251 177.347C134.795 177.109 135.396 176.99 136.053 176.99C136.892 176.99 137.623 177.183 138.246 177.568C138.869 177.942 139.34 178.452 139.657 179.098L138.535 179.455C138.286 179.002 137.934 178.65 137.481 178.401C137.039 178.14 136.546 178.01 136.002 178.01C135.549 178.01 135.124 178.101 134.727 178.282C134.342 178.463 134.002 178.713 133.707 179.03C133.424 179.336 133.197 179.704 133.027 180.135C132.868 180.566 132.789 181.036 132.789 181.546C132.789 182.045 132.874 182.515 133.044 182.957C133.214 183.399 133.446 183.784 133.741 184.113C134.036 184.43 134.376 184.685 134.761 184.878C135.158 185.059 135.577 185.15 136.019 185.15C136.302 185.15 136.58 185.11 136.852 185.031C137.135 184.952 137.396 184.844 137.634 184.708C137.872 184.561 138.076 184.396 138.246 184.215C138.416 184.034 138.535 183.841 138.603 183.637L139.742 183.977C139.617 184.294 139.436 184.589 139.198 184.861C138.96 185.122 138.677 185.354 138.348 185.558C138.031 185.751 137.674 185.898 137.277 186C136.892 186.113 136.489 186.17 136.07 186.17C135.424 186.17 134.829 186.051 134.285 185.813C133.741 185.564 133.271 185.229 132.874 184.81C132.477 184.379 132.166 183.886 131.939 183.331C131.724 182.776 131.616 182.181 131.616 181.546ZM145.3 186.17C144.654 186.17 144.059 186.051 143.515 185.813C142.983 185.564 142.518 185.229 142.121 184.81C141.725 184.379 141.413 183.886 141.186 183.331C140.971 182.776 140.863 182.181 140.863 181.546C140.863 180.923 140.971 180.339 141.186 179.795C141.413 179.24 141.719 178.758 142.104 178.35C142.501 177.931 142.971 177.602 143.515 177.364C144.059 177.115 144.649 176.99 145.283 176.99C145.929 176.99 146.519 177.115 147.051 177.364C147.595 177.602 148.06 177.931 148.445 178.35C148.831 178.769 149.131 179.251 149.346 179.795C149.562 180.339 149.669 180.917 149.669 181.529C149.669 181.62 149.669 181.71 149.669 181.801C149.669 181.892 149.664 181.954 149.652 181.988H142.07C142.104 182.464 142.212 182.906 142.393 183.314C142.586 183.711 142.83 184.056 143.124 184.351C143.419 184.646 143.753 184.878 144.127 185.048C144.513 185.207 144.921 185.286 145.351 185.286C145.635 185.286 145.918 185.246 146.201 185.167C146.485 185.088 146.745 184.98 146.983 184.844C147.221 184.708 147.437 184.544 147.629 184.351C147.822 184.147 147.969 183.926 148.071 183.688L149.074 183.96C148.938 184.289 148.746 184.589 148.496 184.861C148.247 185.122 147.958 185.354 147.629 185.558C147.301 185.751 146.938 185.898 146.541 186C146.145 186.113 145.731 186.17 145.3 186.17ZM148.564 181.104C148.53 180.628 148.417 180.197 148.224 179.812C148.043 179.415 147.805 179.075 147.51 178.792C147.227 178.509 146.893 178.288 146.507 178.129C146.133 177.97 145.731 177.891 145.3 177.891C144.87 177.891 144.462 177.97 144.076 178.129C143.691 178.288 143.351 178.509 143.056 178.792C142.773 179.075 142.541 179.415 142.359 179.812C142.189 180.209 142.087 180.639 142.053 181.104H148.564ZM155.636 185.575C155.568 185.609 155.466 185.654 155.33 185.711C155.206 185.768 155.058 185.824 154.888 185.881C154.718 185.938 154.526 185.989 154.31 186.034C154.095 186.079 153.868 186.102 153.63 186.102C153.381 186.102 153.143 186.068 152.916 186C152.69 185.932 152.491 185.83 152.321 185.694C152.151 185.547 152.015 185.365 151.913 185.15C151.811 184.935 151.76 184.685 151.76 184.402V178.061H150.536V177.143H151.76V174.151H152.916V177.143H154.956V178.061H152.916V184.079C152.939 184.408 153.052 184.651 153.256 184.81C153.472 184.957 153.715 185.031 153.987 185.031C154.316 185.031 154.605 184.98 154.854 184.878C155.104 184.765 155.262 184.685 155.33 184.64L155.636 185.575ZM161.331 185.575C161.263 185.609 161.161 185.654 161.025 185.711C160.9 185.768 160.753 185.824 160.583 185.881C160.413 185.938 160.22 185.989 160.005 186.034C159.789 186.079 159.563 186.102 159.325 186.102C159.075 186.102 158.837 186.068 158.611 186C158.384 185.932 158.186 185.83 158.016 185.694C157.846 185.547 157.71 185.365 157.608 185.15C157.506 184.935 157.455 184.685 157.455 184.402V178.061H156.231V177.143H157.455V174.151H158.611V177.143H160.651V178.061H158.611V184.079C158.633 184.408 158.747 184.651 158.951 184.81C159.166 184.957 159.41 185.031 159.682 185.031C160.01 185.031 160.299 184.98 160.549 184.878C160.798 184.765 160.957 184.685 161.025 184.64L161.331 185.575ZM162.775 186V177.143H163.931V186H162.775ZM162.775 175.29V173.59H163.931V175.29H162.775Z" fill="#9A9A9A"/>
</g>
</g>
</svg>
