<svg width="360" height="640" viewBox="0 0 360 640" fill="none" xmlns="http://www.w3.org/2000/svg">
<g id="Schermata/Intro/1">
<rect width="360" height="640" fill="#FFD6DB"/>
<path id="Subtract" fill-rule="evenodd" clip-rule="evenodd" d="M148 319.623L182 335.717L208.317 321.296C213.039 319.286 217.601 316.769 221.939 313.765C234.93 304.768 245.363 291.78 252.009 276.332C258.655 260.884 261.237 243.62 259.449 226.576C257.762 210.498 252.254 195.247 243.526 182.419L243.5 182.276L236 171.776L210.49 211.368C201.555 206.129 191.132 203.123 180 203.123C169.518 203.123 159.664 205.789 151.089 210.473L124.5 171L117 181.5L116.972 181.695C108.512 193.87 102.965 208.316 100.901 223.651C98.6178 240.62 100.694 257.969 106.887 273.654C113.079 289.339 123.128 302.705 135.85 312.176C139.706 315.047 143.759 317.524 147.96 319.59L148 319.623ZM171.811 292.073C170.61 291.062 169.516 289.726 168.664 288.132C166.088 283.316 166.684 277.977 169.994 276.206C172.926 274.638 177.003 276.394 179.687 280.16C182.37 276.555 186.339 274.904 189.209 276.439C192.52 278.21 193.115 283.549 190.54 288.364C189.559 290.198 188.26 291.691 186.845 292.739L179.697 299.188L171.811 292.073Z" fill="#FFA6AB"/>
<path id="NewMeaw" d="M83.5991 394C83.1457 394 82.7724 393.853 82.4791 393.56C82.1857 393.267 82.0391 392.893 82.0391 392.44V364.32C82.0391 363.867 82.1857 363.493 82.4791 363.2C82.7724 362.907 83.1457 362.76 83.5991 362.76C84.0791 362.76 84.4791 362.947 84.7991 363.32L103.919 388.44V364.32C103.919 363.867 104.066 363.493 104.359 363.2C104.652 362.907 105.026 362.76 105.479 362.76C105.906 362.76 106.266 362.907 106.559 363.2C106.879 363.493 107.039 363.867 107.039 364.32V392.44C107.039 392.893 106.879 393.267 106.559 393.56C106.266 393.853 105.906 394 105.479 394C105.266 394 105.052 393.96 104.839 393.88C104.626 393.8 104.452 393.667 104.319 393.48L85.1591 368.36V392.44C85.1591 392.893 84.9991 393.267 84.6791 393.56C84.3857 393.853 84.0257 394 83.5991 394ZM124.567 394.2C122.407 394.2 120.487 393.733 118.807 392.8C117.154 391.84 115.847 390.52 114.887 388.84C113.954 387.16 113.487 385.24 113.487 383.08C113.487 380.893 113.927 378.973 114.807 377.32C115.714 375.64 116.954 374.32 118.527 373.36C120.1 372.4 121.914 371.92 123.967 371.92C125.994 371.92 127.754 372.387 129.247 373.32C130.767 374.227 131.94 375.493 132.767 377.12C133.594 378.747 134.007 380.6 134.007 382.68C134.007 383.107 133.874 383.453 133.607 383.72C133.34 383.96 132.994 384.08 132.567 384.08H115.567V381.52H132.887L131.167 382.76C131.194 381.213 130.914 379.827 130.327 378.6C129.74 377.373 128.9 376.413 127.807 375.72C126.74 375.027 125.46 374.68 123.967 374.68C122.447 374.68 121.114 375.04 119.967 375.76C118.82 376.48 117.927 377.48 117.287 378.76C116.674 380.013 116.367 381.453 116.367 383.08C116.367 384.707 116.714 386.147 117.407 387.4C118.127 388.653 119.1 389.64 120.327 390.36C121.554 391.08 122.967 391.44 124.567 391.44C125.527 391.44 126.487 391.28 127.447 390.96C128.434 390.613 129.22 390.187 129.807 389.68C130.1 389.44 130.434 389.32 130.807 389.32C131.18 389.293 131.5 389.387 131.767 389.6C132.114 389.92 132.287 390.267 132.287 390.64C132.314 391.013 132.167 391.333 131.847 391.6C130.967 392.347 129.847 392.973 128.487 393.48C127.127 393.96 125.82 394.2 124.567 394.2ZM143.396 394C143.049 394 142.743 393.907 142.476 393.72C142.209 393.533 142.023 393.293 141.916 393L135.676 374.28C135.516 373.613 135.529 373.093 135.716 372.72C135.903 372.32 136.276 372.12 136.836 372.12C137.183 372.12 137.489 372.213 137.756 372.4C138.023 372.587 138.223 372.88 138.356 373.28L143.916 390.28H143.036L148.196 373.32C148.303 372.973 148.476 372.693 148.716 372.48C148.983 372.24 149.316 372.12 149.716 372.12C150.116 372.12 150.436 372.227 150.676 372.44C150.943 372.653 151.129 372.947 151.236 373.32L156.156 389.88H155.476L160.916 373.28C161.183 372.507 161.676 372.12 162.396 372.12C162.983 372.12 163.383 372.347 163.596 372.8C163.809 373.227 163.809 373.72 163.596 374.28L157.356 393C157.249 393.293 157.063 393.533 156.796 393.72C156.556 393.907 156.263 394 155.916 394C155.569 394 155.249 393.907 154.956 393.72C154.689 393.533 154.516 393.293 154.436 393L149.396 376.28H149.876L144.836 393C144.729 393.32 144.543 393.573 144.276 393.76C144.009 393.92 143.716 394 143.396 394ZM170.005 394C169.579 394 169.205 393.853 168.885 393.56C168.592 393.24 168.445 392.867 168.445 392.44V364.32C168.445 363.867 168.592 363.493 168.885 363.2C169.205 362.907 169.579 362.76 170.005 362.76C170.645 362.76 171.112 363.027 171.405 363.56L184.885 390.36H183.525L196.765 363.56C197.085 363.027 197.552 362.76 198.165 362.76C198.592 362.76 198.952 362.907 199.245 363.2C199.539 363.493 199.685 363.867 199.685 364.32V392.44C199.685 392.867 199.539 393.24 199.245 393.56C198.952 393.853 198.592 394 198.165 394C197.712 394 197.325 393.853 197.005 393.56C196.712 393.24 196.565 392.867 196.565 392.44V368.36L197.245 368.4L185.445 392.52C185.152 393.027 184.699 393.28 184.085 393.28C183.419 393.28 182.939 392.96 182.645 392.32L170.765 368.56L171.565 368.36V392.44C171.565 392.867 171.405 393.24 171.085 393.56C170.792 393.853 170.432 394 170.005 394ZM217.223 394.2C215.063 394.2 213.143 393.733 211.463 392.8C209.81 391.84 208.503 390.52 207.543 388.84C206.61 387.16 206.143 385.24 206.143 383.08C206.143 380.893 206.583 378.973 207.463 377.32C208.37 375.64 209.61 374.32 211.183 373.36C212.756 372.4 214.57 371.92 216.623 371.92C218.65 371.92 220.41 372.387 221.903 373.32C223.423 374.227 224.596 375.493 225.423 377.12C226.25 378.747 226.663 380.6 226.663 382.68C226.663 383.107 226.53 383.453 226.263 383.72C225.996 383.96 225.65 384.08 225.223 384.08H208.223V381.52H225.543L223.823 382.76C223.85 381.213 223.57 379.827 222.983 378.6C222.396 377.373 221.556 376.413 220.463 375.72C219.396 375.027 218.116 374.68 216.623 374.68C215.103 374.68 213.77 375.04 212.623 375.76C211.476 376.48 210.583 377.48 209.943 378.76C209.33 380.013 209.023 381.453 209.023 383.08C209.023 384.707 209.37 386.147 210.063 387.4C210.783 388.653 211.756 389.64 212.983 390.36C214.21 391.08 215.623 391.44 217.223 391.44C218.183 391.44 219.143 391.28 220.103 390.96C221.09 390.613 221.876 390.187 222.463 389.68C222.756 389.44 223.09 389.32 223.463 389.32C223.836 389.293 224.156 389.387 224.423 389.6C224.77 389.92 224.943 390.267 224.943 390.64C224.97 391.013 224.823 391.333 224.503 391.6C223.623 392.347 222.503 392.973 221.143 393.48C219.783 393.96 218.476 394.2 217.223 394.2ZM240.732 394.2C238.679 394.2 236.839 393.72 235.212 392.76C233.586 391.773 232.292 390.44 231.332 388.76C230.399 387.08 229.932 385.187 229.932 383.08C229.932 380.947 230.412 379.04 231.372 377.36C232.359 375.68 233.692 374.36 235.372 373.4C237.052 372.413 238.946 371.92 241.052 371.92C243.159 371.92 245.039 372.413 246.692 373.4C248.372 374.36 249.692 375.68 250.652 377.36C251.639 379.04 252.146 380.947 252.172 383.08L250.932 384.04C250.932 385.96 250.479 387.693 249.572 389.24C248.692 390.76 247.479 391.973 245.932 392.88C244.412 393.76 242.679 394.2 240.732 394.2ZM241.052 391.4C242.599 391.4 243.972 391.04 245.172 390.32C246.399 389.6 247.359 388.613 248.052 387.36C248.772 386.08 249.132 384.653 249.132 383.08C249.132 381.48 248.772 380.053 248.052 378.8C247.359 377.547 246.399 376.56 245.172 375.84C243.972 375.093 242.599 374.72 241.052 374.72C239.532 374.72 238.159 375.093 236.932 375.84C235.706 376.56 234.732 377.547 234.012 378.8C233.292 380.053 232.932 381.48 232.932 383.08C232.932 384.653 233.292 386.08 234.012 387.36C234.732 388.613 235.706 389.6 236.932 390.32C238.159 391.04 239.532 391.4 241.052 391.4ZM250.612 394C250.159 394 249.786 393.867 249.492 393.6C249.199 393.307 249.052 392.933 249.052 392.48V385.64L249.812 382.48L252.172 383.08V392.48C252.172 392.933 252.026 393.307 251.732 393.6C251.439 393.867 251.066 394 250.612 394ZM261.912 394C261.565 394 261.258 393.907 260.992 393.72C260.725 393.533 260.538 393.293 260.432 393L254.192 374.28C254.032 373.613 254.045 373.093 254.232 372.72C254.418 372.32 254.792 372.12 255.352 372.12C255.698 372.12 256.005 372.213 256.272 372.4C256.538 372.587 256.738 372.88 256.872 373.28L262.432 390.28H261.552L266.712 373.32C266.818 372.973 266.992 372.693 267.232 372.48C267.498 372.24 267.832 372.12 268.232 372.12C268.632 372.12 268.952 372.227 269.192 372.44C269.458 372.653 269.645 372.947 269.752 373.32L274.672 389.88H273.992L279.432 373.28C279.698 372.507 280.192 372.12 280.912 372.12C281.498 372.12 281.898 372.347 282.112 372.8C282.325 373.227 282.325 373.72 282.112 374.28L275.872 393C275.765 393.293 275.578 393.533 275.312 393.72C275.072 393.907 274.778 394 274.432 394C274.085 394 273.765 393.907 273.472 393.72C273.205 393.533 273.032 393.293 272.952 393L267.912 376.28H268.392L263.352 393C263.245 393.32 263.058 393.573 262.792 393.76C262.525 393.92 262.232 394 261.912 394Z" fill="#FF889D"/>
<path id="Porta a casa l&#226;&#128;&#153;amore" d="M88.78 448V433.8H94.66C95.2733 433.8 95.8333 433.933 96.34 434.2C96.86 434.453 97.3067 434.793 97.68 435.22C98.0533 435.633 98.3467 436.107 98.56 436.64C98.7733 437.173 98.88 437.713 98.88 438.26C98.88 438.847 98.78 439.413 98.58 439.96C98.38 440.493 98.1 440.967 97.74 441.38C97.38 441.793 96.9467 442.127 96.44 442.38C95.9467 442.633 95.3933 442.76 94.78 442.76H90.18V448H88.78ZM90.18 441.52H94.72C95.1333 441.52 95.5067 441.433 95.84 441.26C96.1867 441.073 96.48 440.833 96.72 440.54C96.96 440.233 97.1467 439.887 97.28 439.5C97.4133 439.1 97.48 438.687 97.48 438.26C97.48 437.82 97.4 437.407 97.24 437.02C97.0933 436.62 96.8867 436.273 96.62 435.98C96.3667 435.687 96.06 435.46 95.7 435.3C95.3533 435.127 94.9867 435.04 94.6 435.04H90.18V441.52ZM105.206 448.2C104.446 448.2 103.752 448.06 103.126 447.78C102.499 447.487 101.952 447.093 101.486 446.6C101.032 446.107 100.679 445.533 100.426 444.88C100.172 444.227 100.046 443.54 100.046 442.82C100.046 442.087 100.172 441.393 100.426 440.74C100.692 440.087 101.052 439.513 101.506 439.02C101.972 438.527 102.519 438.133 103.146 437.84C103.772 437.547 104.459 437.4 105.206 437.4C105.952 437.4 106.639 437.547 107.266 437.84C107.906 438.133 108.452 438.527 108.906 439.02C109.372 439.513 109.732 440.087 109.986 440.74C110.252 441.393 110.386 442.087 110.386 442.82C110.386 443.54 110.259 444.227 110.006 444.88C109.752 445.533 109.392 446.107 108.926 446.6C108.472 447.093 107.926 447.487 107.286 447.78C106.659 448.06 105.966 448.2 105.206 448.2ZM101.426 442.84C101.426 443.427 101.526 443.973 101.726 444.48C101.926 444.973 102.192 445.413 102.526 445.8C102.872 446.173 103.272 446.467 103.726 446.68C104.192 446.893 104.686 447 105.206 447C105.726 447 106.212 446.893 106.666 446.68C107.132 446.453 107.539 446.153 107.886 445.78C108.232 445.393 108.506 444.947 108.706 444.44C108.906 443.933 109.006 443.387 109.006 442.8C109.006 442.227 108.906 441.687 108.706 441.18C108.506 440.66 108.232 440.213 107.886 439.84C107.539 439.453 107.132 439.153 106.666 438.94C106.212 438.713 105.726 438.6 105.206 438.6C104.686 438.6 104.199 438.713 103.746 438.94C103.292 439.153 102.892 439.453 102.546 439.84C102.199 440.227 101.926 440.68 101.726 441.2C101.526 441.707 101.426 442.253 101.426 442.84ZM117.86 438.78C116.94 438.807 116.14 439.06 115.46 439.54C114.78 440.02 114.3 440.68 114.02 441.52V448H112.66V437.58H113.94V440.08C114.327 439.28 114.847 438.653 115.5 438.2C116.153 437.747 116.853 437.52 117.6 437.52C117.707 437.52 117.793 437.527 117.86 437.54V438.78ZM124.672 447.5C124.592 447.54 124.472 447.593 124.312 447.66C124.165 447.727 123.992 447.793 123.792 447.86C123.592 447.927 123.365 447.987 123.112 448.04C122.859 448.093 122.592 448.12 122.312 448.12C122.019 448.12 121.739 448.08 121.472 448C121.205 447.92 120.972 447.8 120.772 447.64C120.572 447.467 120.412 447.253 120.292 447C120.172 446.747 120.112 446.453 120.112 446.12V438.66H118.672V437.58H120.112V434.06H121.472V437.58H123.872V438.66H121.472V445.74C121.499 446.127 121.632 446.413 121.872 446.6C122.125 446.773 122.412 446.86 122.732 446.86C123.119 446.86 123.459 446.8 123.752 446.68C124.045 446.547 124.232 446.453 124.312 446.4L124.672 447.5ZM128.991 448.2C128.498 448.2 128.038 448.12 127.611 447.96C127.198 447.787 126.831 447.553 126.511 447.26C126.204 446.967 125.964 446.627 125.791 446.24C125.618 445.84 125.531 445.413 125.531 444.96C125.531 444.507 125.638 444.087 125.851 443.7C126.064 443.313 126.364 442.98 126.751 442.7C127.138 442.42 127.598 442.207 128.131 442.06C128.664 441.9 129.251 441.82 129.891 441.82C130.424 441.82 130.964 441.867 131.511 441.96C132.058 442.053 132.544 442.187 132.971 442.36V441.42C132.971 440.5 132.711 439.773 132.191 439.24C131.671 438.693 130.951 438.42 130.031 438.42C129.498 438.42 128.951 438.527 128.391 438.74C127.831 438.953 127.264 439.26 126.691 439.66L126.211 438.76C127.558 437.853 128.864 437.4 130.131 437.4C131.438 437.4 132.464 437.767 133.211 438.5C133.958 439.233 134.331 440.247 134.331 441.54V446.24C134.331 446.613 134.498 446.8 134.831 446.8V448C134.604 448.04 134.431 448.06 134.311 448.06C133.964 448.06 133.691 447.973 133.491 447.8C133.304 447.627 133.204 447.387 133.191 447.08L133.151 446.26C132.671 446.887 132.064 447.367 131.331 447.7C130.611 448.033 129.831 448.2 128.991 448.2ZM129.311 447.16C130.018 447.16 130.664 447.027 131.251 446.76C131.851 446.493 132.304 446.14 132.611 445.7C132.731 445.58 132.818 445.453 132.871 445.32C132.938 445.173 132.971 445.04 132.971 444.92V443.22C132.518 443.047 132.044 442.913 131.551 442.82C131.071 442.727 130.578 442.68 130.071 442.68C129.111 442.68 128.331 442.88 127.731 443.28C127.131 443.68 126.831 444.207 126.831 444.86C126.831 445.18 126.891 445.48 127.011 445.76C127.144 446.04 127.318 446.287 127.531 446.5C127.758 446.7 128.024 446.86 128.331 446.98C128.638 447.1 128.964 447.16 129.311 447.16ZM144.987 448.2C144.494 448.2 144.034 448.12 143.607 447.96C143.194 447.787 142.827 447.553 142.507 447.26C142.201 446.967 141.961 446.627 141.787 446.24C141.614 445.84 141.527 445.413 141.527 444.96C141.527 444.507 141.634 444.087 141.847 443.7C142.061 443.313 142.361 442.98 142.747 442.7C143.134 442.42 143.594 442.207 144.127 442.06C144.661 441.9 145.247 441.82 145.887 441.82C146.421 441.82 146.961 441.867 147.507 441.96C148.054 442.053 148.541 442.187 148.967 442.36V441.42C148.967 440.5 148.707 439.773 148.187 439.24C147.667 438.693 146.947 438.42 146.027 438.42C145.494 438.42 144.947 438.527 144.387 438.74C143.827 438.953 143.261 439.26 142.687 439.66L142.207 438.76C143.554 437.853 144.861 437.4 146.127 437.4C147.434 437.4 148.461 437.767 149.207 438.5C149.954 439.233 150.327 440.247 150.327 441.54V446.24C150.327 446.613 150.494 446.8 150.827 446.8V448C150.601 448.04 150.427 448.06 150.307 448.06C149.961 448.06 149.687 447.973 149.487 447.8C149.301 447.627 149.201 447.387 149.187 447.08L149.147 446.26C148.667 446.887 148.061 447.367 147.327 447.7C146.607 448.033 145.827 448.2 144.987 448.2ZM145.307 447.16C146.014 447.16 146.661 447.027 147.247 446.76C147.847 446.493 148.301 446.14 148.607 445.7C148.727 445.58 148.814 445.453 148.867 445.32C148.934 445.173 148.967 445.04 148.967 444.92V443.22C148.514 443.047 148.041 442.913 147.547 442.82C147.067 442.727 146.574 442.68 146.067 442.68C145.107 442.68 144.327 442.88 143.727 443.28C143.127 443.68 142.827 444.207 142.827 444.86C142.827 445.18 142.887 445.48 143.007 445.76C143.141 446.04 143.314 446.287 143.527 446.5C143.754 446.7 144.021 446.86 144.327 446.98C144.634 447.1 144.961 447.16 145.307 447.16ZM157.643 442.76C157.643 442.027 157.77 441.333 158.023 440.68C158.277 440.027 158.63 439.46 159.083 438.98C159.55 438.487 160.103 438.1 160.743 437.82C161.383 437.54 162.09 437.4 162.863 437.4C163.85 437.4 164.71 437.627 165.443 438.08C166.177 438.52 166.73 439.12 167.103 439.88L165.783 440.3C165.49 439.767 165.077 439.353 164.543 439.06C164.023 438.753 163.443 438.6 162.803 438.6C162.27 438.6 161.77 438.707 161.303 438.92C160.85 439.133 160.45 439.427 160.103 439.8C159.77 440.16 159.503 440.593 159.303 441.1C159.117 441.607 159.023 442.16 159.023 442.76C159.023 443.347 159.123 443.9 159.323 444.42C159.523 444.94 159.797 445.393 160.143 445.78C160.49 446.153 160.89 446.453 161.343 446.68C161.81 446.893 162.303 447 162.823 447C163.157 447 163.483 446.953 163.803 446.86C164.137 446.767 164.443 446.64 164.723 446.48C165.003 446.307 165.243 446.113 165.443 445.9C165.643 445.687 165.783 445.46 165.863 445.22L167.203 445.62C167.057 445.993 166.843 446.34 166.563 446.66C166.283 446.967 165.95 447.24 165.563 447.48C165.19 447.707 164.77 447.88 164.303 448C163.85 448.133 163.377 448.2 162.883 448.2C162.123 448.2 161.423 448.06 160.783 447.78C160.143 447.487 159.59 447.093 159.123 446.6C158.657 446.093 158.29 445.513 158.023 444.86C157.77 444.207 157.643 443.507 157.643 442.76ZM171.96 448.2C171.467 448.2 171.007 448.12 170.58 447.96C170.167 447.787 169.8 447.553 169.48 447.26C169.173 446.967 168.933 446.627 168.76 446.24C168.587 445.84 168.5 445.413 168.5 444.96C168.5 444.507 168.607 444.087 168.82 443.7C169.033 443.313 169.333 442.98 169.72 442.7C170.107 442.42 170.567 442.207 171.1 442.06C171.633 441.9 172.22 441.82 172.86 441.82C173.393 441.82 173.933 441.867 174.48 441.96C175.027 442.053 175.513 442.187 175.94 442.36V441.42C175.94 440.5 175.68 439.773 175.16 439.24C174.64 438.693 173.92 438.42 173 438.42C172.467 438.42 171.92 438.527 171.36 438.74C170.8 438.953 170.233 439.26 169.66 439.66L169.18 438.76C170.527 437.853 171.833 437.4 173.1 437.4C174.407 437.4 175.433 437.767 176.18 438.5C176.927 439.233 177.3 440.247 177.3 441.54V446.24C177.3 446.613 177.467 446.8 177.8 446.8V448C177.573 448.04 177.4 448.06 177.28 448.06C176.933 448.06 176.66 447.973 176.46 447.8C176.273 447.627 176.173 447.387 176.16 447.08L176.12 446.26C175.64 446.887 175.033 447.367 174.3 447.7C173.58 448.033 172.8 448.2 171.96 448.2ZM172.28 447.16C172.987 447.16 173.633 447.027 174.22 446.76C174.82 446.493 175.273 446.14 175.58 445.7C175.7 445.58 175.787 445.453 175.84 445.32C175.907 445.173 175.94 445.04 175.94 444.92V443.22C175.487 443.047 175.013 442.913 174.52 442.82C174.04 442.727 173.547 442.68 173.04 442.68C172.08 442.68 171.3 442.88 170.7 443.28C170.1 443.68 169.8 444.207 169.8 444.86C169.8 445.18 169.86 445.48 169.98 445.76C170.113 446.04 170.287 446.287 170.5 446.5C170.727 446.7 170.993 446.86 171.3 446.98C171.607 447.1 171.933 447.16 172.28 447.16ZM183.698 448.2C182.885 448.2 182.092 448.067 181.318 447.8C180.545 447.533 179.878 447.147 179.318 446.64L179.938 445.72C180.525 446.2 181.118 446.56 181.718 446.8C182.332 447.04 182.985 447.16 183.678 447.16C184.518 447.16 185.185 446.993 185.678 446.66C186.185 446.313 186.438 445.827 186.438 445.2C186.438 444.907 186.372 444.667 186.238 444.48C186.105 444.28 185.905 444.107 185.638 443.96C185.385 443.813 185.058 443.687 184.658 443.58C184.272 443.46 183.818 443.34 183.298 443.22C182.698 443.073 182.178 442.927 181.738 442.78C181.298 442.633 180.932 442.467 180.638 442.28C180.358 442.093 180.145 441.867 179.998 441.6C179.865 441.32 179.798 440.973 179.798 440.56C179.798 440.04 179.898 439.58 180.098 439.18C180.312 438.78 180.592 438.453 180.938 438.2C181.298 437.933 181.712 437.733 182.178 437.6C182.658 437.467 183.165 437.4 183.698 437.4C184.498 437.4 185.225 437.533 185.878 437.8C186.532 438.053 187.058 438.393 187.458 438.82L186.798 439.62C186.412 439.22 185.938 438.92 185.378 438.72C184.832 438.52 184.258 438.42 183.658 438.42C183.298 438.42 182.965 438.46 182.658 438.54C182.352 438.607 182.078 438.72 181.838 438.88C181.612 439.04 181.432 439.247 181.298 439.5C181.165 439.74 181.098 440.027 181.098 440.36C181.098 440.64 181.145 440.867 181.238 441.04C181.332 441.213 181.485 441.367 181.698 441.5C181.912 441.62 182.178 441.733 182.498 441.84C182.832 441.933 183.232 442.033 183.698 442.14C184.365 442.3 184.952 442.46 185.458 442.62C185.965 442.78 186.385 442.967 186.718 443.18C187.065 443.393 187.325 443.653 187.498 443.96C187.672 444.267 187.758 444.64 187.758 445.08C187.758 446.04 187.392 446.8 186.658 447.36C185.925 447.92 184.938 448.2 183.698 448.2ZM192.604 448.2C192.111 448.2 191.651 448.12 191.224 447.96C190.811 447.787 190.444 447.553 190.124 447.26C189.818 446.967 189.578 446.627 189.404 446.24C189.231 445.84 189.144 445.413 189.144 444.96C189.144 444.507 189.251 444.087 189.464 443.7C189.678 443.313 189.978 442.98 190.364 442.7C190.751 442.42 191.211 442.207 191.744 442.06C192.278 441.9 192.864 441.82 193.504 441.82C194.038 441.82 194.578 441.867 195.124 441.96C195.671 442.053 196.158 442.187 196.584 442.36V441.42C196.584 440.5 196.324 439.773 195.804 439.24C195.284 438.693 194.564 438.42 193.644 438.42C193.111 438.42 192.564 438.527 192.004 438.74C191.444 438.953 190.878 439.26 190.304 439.66L189.824 438.76C191.171 437.853 192.478 437.4 193.744 437.4C195.051 437.4 196.078 437.767 196.824 438.5C197.571 439.233 197.944 440.247 197.944 441.54V446.24C197.944 446.613 198.111 446.8 198.444 446.8V448C198.218 448.04 198.044 448.06 197.924 448.06C197.578 448.06 197.304 447.973 197.104 447.8C196.918 447.627 196.818 447.387 196.804 447.08L196.764 446.26C196.284 446.887 195.678 447.367 194.944 447.7C194.224 448.033 193.444 448.2 192.604 448.2ZM192.924 447.16C193.631 447.16 194.278 447.027 194.864 446.76C195.464 446.493 195.918 446.14 196.224 445.7C196.344 445.58 196.431 445.453 196.484 445.32C196.551 445.173 196.584 445.04 196.584 444.92V443.22C196.131 443.047 195.658 442.913 195.164 442.82C194.684 442.727 194.191 442.68 193.684 442.68C192.724 442.68 191.944 442.88 191.344 443.28C190.744 443.68 190.444 444.207 190.444 444.86C190.444 445.18 190.504 445.48 190.624 445.76C190.758 446.04 190.931 446.287 191.144 446.5C191.371 446.7 191.638 446.86 191.944 446.98C192.251 447.1 192.578 447.16 192.924 447.16ZM206.04 433.4H207.4V445.64C207.4 446.027 207.507 446.333 207.72 446.56C207.934 446.773 208.234 446.88 208.62 446.88C208.767 446.88 208.94 446.86 209.14 446.82C209.34 446.78 209.527 446.727 209.7 446.66L209.94 447.76C209.687 447.867 209.374 447.953 209 448.02C208.64 448.087 208.327 448.12 208.06 448.12C207.434 448.12 206.94 447.947 206.58 447.6C206.22 447.24 206.04 446.74 206.04 446.1V433.4ZM211.135 437.58L211.475 435.46H210.995V433.4H212.335V435.46L211.835 437.58H211.135ZM217.39 448.2C216.896 448.2 216.436 448.12 216.01 447.96C215.596 447.787 215.23 447.553 214.91 447.26C214.603 446.967 214.363 446.627 214.19 446.24C214.016 445.84 213.93 445.413 213.93 444.96C213.93 444.507 214.036 444.087 214.25 443.7C214.463 443.313 214.763 442.98 215.15 442.7C215.536 442.42 215.996 442.207 216.53 442.06C217.063 441.9 217.65 441.82 218.29 441.82C218.823 441.82 219.363 441.867 219.91 441.96C220.456 442.053 220.943 442.187 221.37 442.36V441.42C221.37 440.5 221.11 439.773 220.59 439.24C220.07 438.693 219.35 438.42 218.43 438.42C217.896 438.42 217.35 438.527 216.79 438.74C216.23 438.953 215.663 439.26 215.09 439.66L214.61 438.76C215.956 437.853 217.263 437.4 218.53 437.4C219.836 437.4 220.863 437.767 221.61 438.5C222.356 439.233 222.73 440.247 222.73 441.54V446.24C222.73 446.613 222.896 446.8 223.23 446.8V448C223.003 448.04 222.83 448.06 222.71 448.06C222.363 448.06 222.09 447.973 221.89 447.8C221.703 447.627 221.603 447.387 221.59 447.08L221.55 446.26C221.07 446.887 220.463 447.367 219.73 447.7C219.01 448.033 218.23 448.2 217.39 448.2ZM217.71 447.16C218.416 447.16 219.063 447.027 219.65 446.76C220.25 446.493 220.703 446.14 221.01 445.7C221.13 445.58 221.216 445.453 221.27 445.32C221.336 445.173 221.37 445.04 221.37 444.92V443.22C220.916 443.047 220.443 442.913 219.95 442.82C219.47 442.727 218.976 442.68 218.47 442.68C217.51 442.68 216.73 442.88 216.13 443.28C215.53 443.68 215.23 444.207 215.23 444.86C215.23 445.18 215.29 445.48 215.41 445.76C215.543 446.04 215.716 446.287 215.93 446.5C216.156 446.7 216.423 446.86 216.73 446.98C217.036 447.1 217.363 447.16 217.71 447.16ZM241.168 448H239.808V442.18C239.808 440.967 239.615 440.073 239.228 439.5C238.841 438.927 238.268 438.64 237.508 438.64C237.108 438.64 236.728 438.713 236.368 438.86C236.021 439.007 235.695 439.213 235.388 439.48C235.095 439.747 234.835 440.067 234.608 440.44C234.381 440.8 234.208 441.2 234.088 441.64V448H232.728V442.18C232.728 440.94 232.541 440.04 232.168 439.48C231.795 438.92 231.221 438.64 230.448 438.64C229.661 438.64 228.961 438.913 228.348 439.46C227.735 440.007 227.295 440.727 227.028 441.62V448H225.668V437.58H226.908V439.94C227.335 439.14 227.895 438.52 228.588 438.08C229.281 437.627 230.048 437.4 230.888 437.4C231.768 437.4 232.468 437.647 232.988 438.14C233.521 438.633 233.848 439.28 233.968 440.08C234.941 438.293 236.281 437.4 237.988 437.4C238.575 437.4 239.068 437.507 239.468 437.72C239.881 437.933 240.208 438.24 240.448 438.64C240.701 439.027 240.881 439.5 240.988 440.06C241.108 440.607 241.168 441.22 241.168 441.9V448ZM248.487 448.2C247.727 448.2 247.034 448.06 246.407 447.78C245.78 447.487 245.234 447.093 244.767 446.6C244.314 446.107 243.96 445.533 243.707 444.88C243.454 444.227 243.327 443.54 243.327 442.82C243.327 442.087 243.454 441.393 243.707 440.74C243.974 440.087 244.334 439.513 244.787 439.02C245.254 438.527 245.8 438.133 246.427 437.84C247.054 437.547 247.74 437.4 248.487 437.4C249.234 437.4 249.92 437.547 250.547 437.84C251.187 438.133 251.734 438.527 252.187 439.02C252.654 439.513 253.014 440.087 253.267 440.74C253.534 441.393 253.667 442.087 253.667 442.82C253.667 443.54 253.54 444.227 253.287 444.88C253.034 445.533 252.674 446.107 252.207 446.6C251.754 447.093 251.207 447.487 250.567 447.78C249.94 448.06 249.247 448.2 248.487 448.2ZM244.707 442.84C244.707 443.427 244.807 443.973 245.007 444.48C245.207 444.973 245.474 445.413 245.807 445.8C246.154 446.173 246.554 446.467 247.007 446.68C247.474 446.893 247.967 447 248.487 447C249.007 447 249.494 446.893 249.947 446.68C250.414 446.453 250.82 446.153 251.167 445.78C251.514 445.393 251.787 444.947 251.987 444.44C252.187 443.933 252.287 443.387 252.287 442.8C252.287 442.227 252.187 441.687 251.987 441.18C251.787 440.66 251.514 440.213 251.167 439.84C250.82 439.453 250.414 439.153 249.947 438.94C249.494 438.713 249.007 438.6 248.487 438.6C247.967 438.6 247.48 438.713 247.027 438.94C246.574 439.153 246.174 439.453 245.827 439.84C245.48 440.227 245.207 440.68 245.007 441.2C244.807 441.707 244.707 442.253 244.707 442.84ZM261.141 438.78C260.221 438.807 259.421 439.06 258.741 439.54C258.061 440.02 257.581 440.68 257.301 441.52V448H255.941V437.58H257.221V440.08C257.608 439.28 258.128 438.653 258.781 438.2C259.435 437.747 260.135 437.52 260.881 437.52C260.988 437.52 261.075 437.527 261.141 437.54V438.78ZM266.926 448.2C266.166 448.2 265.466 448.06 264.826 447.78C264.199 447.487 263.652 447.093 263.186 446.6C262.719 446.093 262.352 445.513 262.086 444.86C261.832 444.207 261.706 443.507 261.706 442.76C261.706 442.027 261.832 441.34 262.086 440.7C262.352 440.047 262.712 439.48 263.166 439C263.632 438.507 264.186 438.12 264.826 437.84C265.466 437.547 266.159 437.4 266.906 437.4C267.666 437.4 268.359 437.547 268.986 437.84C269.626 438.12 270.172 438.507 270.626 439C271.079 439.493 271.432 440.06 271.686 440.7C271.939 441.34 272.066 442.02 272.066 442.74C272.066 442.847 272.066 442.953 272.066 443.06C272.066 443.167 272.059 443.24 272.046 443.28H263.126C263.166 443.84 263.292 444.36 263.506 444.84C263.732 445.307 264.019 445.713 264.366 446.06C264.712 446.407 265.106 446.68 265.546 446.88C265.999 447.067 266.479 447.16 266.986 447.16C267.319 447.16 267.652 447.113 267.986 447.02C268.319 446.927 268.626 446.8 268.906 446.64C269.186 446.48 269.439 446.287 269.666 446.06C269.892 445.82 270.066 445.56 270.186 445.28L271.366 445.6C271.206 445.987 270.979 446.34 270.686 446.66C270.392 446.967 270.052 447.24 269.666 447.48C269.279 447.707 268.852 447.88 268.386 448C267.919 448.133 267.432 448.2 266.926 448.2ZM270.766 442.24C270.726 441.68 270.592 441.173 270.366 440.72C270.152 440.253 269.872 439.853 269.526 439.52C269.192 439.187 268.799 438.927 268.346 438.74C267.906 438.553 267.432 438.46 266.926 438.46C266.419 438.46 265.939 438.553 265.486 438.74C265.032 438.927 264.632 439.187 264.286 439.52C263.952 439.853 263.679 440.253 263.466 440.72C263.266 441.187 263.146 441.693 263.106 442.24H270.766Z" fill="#AFAFAF"/>
<line id="Line 1" x1="78.0025" y1="412.5" x2="282.002" y2="413.5" stroke="#FFA6AB"/>
<rect id="Rectangle 11" width="360" height="14" fill="#202020" fill-opacity="0.46"/>
</g>
</svg>
